<svg version="1.2" xmlns="http://www.w3.org/2000/svg" viewBox="0 0 468 324" width="468" height="324">
	<title>New Project</title>
	<style>
		.s0 { fill: #ffffff } 
	</style>
	<g id="Folder 1">
		<path id="Shape 1 copy" class="s0" d="m0 30c0-16.6 13.4-30 30-30h408c16.6 0 30 13.4 30 30v8c0 16.6-13.4 30-30 30h-408c-16.6 0-30-13.4-30-30z" />
		<path id="Shape 1 copy 2" class="s0" d="m0 158c0-16.6 13.4-30 30-30h408c16.6 0 30 13.4 30 30v8c0 16.6-13.4 30-30 30h-408c-16.6 0-30-13.4-30-30z" />
		<path id="Shape 1 copy 3" class="s0" d="m0 286c0-16.6 13.4-30 30-30h408c16.6 0 30 13.4 30 30v8c0 16.6-13.4 30-30 30h-408c-16.6 0-30-13.4-30-30z" />
	</g>
</svg>